/* XPM */
static char *abe8acdb8fb44310cc0cb0299dd2f9a52aAOxQ76ryANt6HW[] = {
/* columns rows colors chars-per-pixel */
"48 48 140 2 ",
"   c None",
".  c #639236",
"X  c #669439",
"o  c #6A963E",
"O  c #6B9A3E",
"+  c #73AC3C",
"@  c #6C9742",
"#  c #6D9843",
"$  c #719D44",
"%  c #739C4A",
"&  c #789E51",
"*  c #73A147",
"=  c #76AE42",
"-  c #78AF44",
";  c #76A449",
":  c #79A94A",
">  c #7AB146",
",  c #7DB24B",
"<  c #7FA35B",
"1  c #80B34F",
"2  c #80AF52",
"3  c #81B451",
"4  c #86B25A",
"5  c #88B75A",
"6  c #8AB95D",
"7  c #8DAB6D",
"8  c #8DBA62",
"9  c #91AD72",
"0  c #92B370",
"q  c #98BD73",
"w  c #9AB37F",
"e  c #96C668",
"r  c #9CC376",
"t  c #9EC478",
"y  c #A19E9C",
"u  c #97AB81",
"i  c #9FB685",
"p  c #A4BE89",
"a  c #A4A19F",
"s  c #A7AB9F",
"d  c #A2B191",
"f  c #ACBE96",
"g  c #A5A2A0",
"h  c #A9A7A5",
"j  c #ADAEA7",
"k  c #AEACAB",
"l  c #B0AEAD",
"z  c #B3AEB3",
"x  c #B4B0B2",
"c  c #B8B2B8",
"v  c #C1BEBC",
"b  c #A3C681",
"n  c #A9C58D",
"m  c #ACCB8C",
"M  c #A9C091",
"N  c #AFCD91",
"B  c #B4CF99",
"V  c #B7D19D",
"C  c #BAC6AA",
"Z  c #BDC8AD",
"A  c #BBD3A2",
"S  c #C0D6A9",
"D  c #C6DFAC",
"F  c #C2CCB5",
"G  c #C8CEBC",
"H  c #C8DBB3",
"J  c #C9D0BD",
"K  c #CBDCBA",
"L  c #C7C5C3",
"P  c #C8C6C4",
"I  c #CFCDCC",
"U  c #D0CFCC",
"Y  c #CCD1C1",
"T  c #D2DFC4",
"R  c #D5D7CE",
"E  c #D3CED2",
"W  c #D5D0D6",
"Q  c #D9D7D4",
"!  c #DBDAD6",
"~  c #DEDCD9",
"^  c #E1DFDD",
"/  c #D4E1C6",
"(  c #DBE4CF",
")  c #DCE5D1",
"_  c #E4EDD7",
"`  c #E3E1DE",
"'  c #E6EADF",
"]  c #E3DEE1",
"[  c #E6E4E2",
"{  c #E8E6E4",
"}  c #EAE9E6",
"|  c #EEEDEB",
" . c #F0EFED",
".. c #EFF1EC",
"X. c #F1F0EE",
"o. c #F2ECF3",
"O. c #F3F2F0",
"+. c #F3F2F1",
"@. c #F3F3F1",
"#. c #F2F1F0",
"$. c #F4F3F1",
"%. c #F4F3F2",
"&. c #F5F4F1",
"*. c #F5F4F2",
"=. c #F5F5F3",
"-. c #F6F5F3",
";. c #F4F3F4",
":. c #F6F1F6",
">. c #F6F2F6",
",. c #F6F3F6",
"<. c #F7F6F5",
"1. c #F6F4F6",
"2. c #F7F5F6",
"3. c #F7F4F7",
"4. c #F5F3F4",
"5. c #F8F7F4",
"6. c #F8F7F5",
"7. c #FAF8F6",
"8. c #FAF9F7",
"9. c #F7F2F8",
"0. c #F8F4F8",
"q. c #F9F4FA",
"w. c #F9F5FA",
"e. c #FAF5FB",
"r. c #FAF7FA",
"t. c #FBF5FC",
"y. c #FBF6FD",
"u. c #FCF6FE",
"i. c #FCF7FF",
"p. c #FDF7FF",
"a. c #F9F4FA",
"s. c #FBFAF8",
"d. c #FDFCFA",
"f. c #FEFDFA",
"g. c #FEFDFB",
"h. c #FFFEFB",
"j. c #FDF8FE",
"k. c #FFFFFE",
"l. c white",
"z. c #FCFBF9",
/* pixels */
"                                                                                                ",
"                                                                                                ",
"                                                                                                ",
"                                                                                                ",
"                  <.7.} [ { { { { { { { { { { { { { { { { { { X.|                               ",
"                | l. . .} ^ ~ ~ ~ ~ ~ ~ ~ ~ ~ ~ ~ ~ ~ ~ ~ ~ ~ } l.|                             ",
"                | g.| | X.| [ ~ ~ ~ ~ ~ ~ ~ ~ ~ ~ ~ ~ ~ ~ ~ ^ | *.O.                            ",
"                | g.| | |  .X.| ` ~ ~ ~ ~ ~ ~ ~ ~ ~ ~ ~ ~ ~ }  .| l.|                           ",
"                | g.| | | | |  . .} ^ ! ~ ~ ~ ~ ~ ~ ~ ~ ~ `  .| | X.s.                          ",
"                | g.| | | | | | |  .| [ ~ ! ~ ~ ~ ~ ~ ~ ~ [ X.| | | g.|                         ",
"                | g.| | | | | | | | | X.| [ ~ ~ ~ ~ ~ ~ ~ ~ | X.| | | l.                        ",
"                | g.| | | | | | | | | |  . .| ` ~ ~ ~ ~ ~ ~ ^ }  . .| 5.X.                      ",
"                | g.| |  .$.$.$.$.$.$.$.$.$.*.*.| [ ` ` ` ` ` ^ [  .*. .l.|                     ",
"                | g.| X.{ I I I I I I I I I I I U I L v v v v v v v P } *.*.                    ",
"                | g.| O.~ k l l l l l l l l l l l l l k h a a g g g y U } l.|                   ",
"                | g.| | | } } } } } } } } } } } } } } } | [ ~ Q Q Q Q ! ~ ` 5.                  ",
"                | g.| | | X.X.X.X.X.X.X.X.X.X.X.X.X.X.X.X.X.X.} ^ ~ ~ ~ ~ ~ | ^                 ",
"                | g.| | | | | | | | | | | | | | | | | | | | |  .| [ ~ ~ ~ ~ } !                 ",
"                | g.| |  .$.$.$.$.$.$.$.$.$.$.$.$.$.$.$.$.$.$.$.*.*.X.[ ~ ~ } ~                 ",
"                | g.| X.{ I I I I I I I I I I I I I I I I I I I I I I } | ^ } !                 ",
"                | g.| O.~ k l l l l l l l l l l l l l l l l l l l l k ~ $.| *.~                 ",
"                | g.| | | } } } } } } } } } } } } } } } } } } } } } } | | | g.|                 ",
"                | g.| | | X.X.X.X.X.X.X.X.X.X.X.X.X.X.X.X.X.X.X.X.X.X.| | | g.|                 ",
"                | g.| | | | | | | | | | | | | | | | | | | | | | | | | | | | g.|                 ",
"                | g.| |  .$.$.$.$.$.$.$.$.$.$.$.$.$.$.$.$.$.$.$.$.$.$.X.| | g.|                 ",
"                | g.| X.{ I I I I I I I I I I I I I I I I I I I E E E | >.>.l.>.                ",
"                | g.| O.~ k l l l l l l l l l l l l l l l k x c s u 7 q t b D T                 ",
"                | g.| | | } } } } } } } } } } } } } } } } o.' n 3 > , - = - = 1 ,               ",
"                | g.| | | X.X.X.X.X.X.X.X.X.X.X.X.X.X. .q.( 6 = , 3 , 3 6 , 1 1 : #             ",
"                | g.| | | | | | | | | | | | | | | | | >.( 3 - 3 1 , , / ..8 , ; @ $ ;           ",
"                | g.| |  .$.$.$.$.$.$.$.$.$.$.$.$.$.<.| 8 - 3 1 3 = m u.u.K = # @ # $ *         ",
"                | g.| X.{ I I I I I I I I I I I I I W n = 1 1 1 , 3 ' <.O.q.0 . # # # * @       ",
"                | g.| O.~ k l l l l l l l l l l l l j 2 , 1 1 1 = A u.X.O.>.G o @ # # # *       ",
"                | g.| | | } } } } } } } } } } } } o.K > 1 1 1 > 8 X.>.O.O.[ [ w . # # # ; #     ",
"                | g.| | | X.X.X.X.X.X.X.X.X.X.X.X.q.V = 1 1 1 - K y.X.$.| ! ^ R % o # # * #     ",
"                | g.| | | | | | | | | | | | | | | 9.m = 1 1 - t q.O.O.O.^ ~ ~ [ f . # # $ @     ",
"                | g.| |  .$.$.$.$.$.$.$.$.$.$.$.$.j.m = 1 , , ) q.X.$.| ] ~ ~ ^ ~ < X # $ @     ",
"                | g.| X.{ I I I I I I I I I I I I W p > 3 = N u.O.<.y.J C [ [ ~ [ Z . # * #     ",
"                | g.| O.~ k l l l l l l l l l l l z d , , 6 } q.u...M @ . 7 Y [ ^ [ 9 X ; #     ",
"                | g.| | | } } } } } } } } } } } } | ' 5 + N l.>.H 4 . @ # . @ i Q o.F X *       ",
"                | g.| | | X.X.X.X.X.X.X.X.X.X.X.X.X.q.B + 8 S r - O @ # # # @ . & f 7 $ @       ",
"                | g.| | | | | | | | | | | | | | | | O.} 8 = = , : @ # # # # # # o . o *         ",
"                | l.|  . . . . . . . . . . . . . . . .>.( 3 > 1 # @ # # # # # # # $ ;           ",
"                  <.l.s.s.s.s.s.s.s.s.s.s.s.s.s.s.s.s.7.l._ e : # # # # # # # # * $             ",
"                                                              o $ ; * * * * ; $ $               ",
"                                                                    # @ # #                     ",
"                                                                                                ",
"                                                                                                "
};
