/* XPM */
static char *_8bd7e3878d14fc7fcc504ee87cb302aAYJEW4V7ludW17Qa[] = {
/* columns rows colors chars-per-pixel */
"48 48 140 2 ",
"   c None",
".  c #2A1F15",
"X  c #2C2116",
"o  c #2C231A",
"O  c #30261C",
"+  c #2E2721",
"@  c #2F2822",
"#  c #332C25",
"$  c #352F29",
"%  c #36322D",
"&  c #3F352B",
"*  c #393633",
"=  c #3D3C3C",
"-  c #40362D",
";  c #43392F",
":  c #453B30",
">  c #493E33",
",  c #4E4236",
"<  c #4F4438",
"1  c #504337",
"2  c #514538",
"3  c #55483C",
"4  c #5A4C3F",
"5  c #414346",
"6  c #43474B",
"7  c #44494D",
"8  c #5D4F42",
"9  c #5E5042",
"0  c #464D54",
"q  c #4B545E",
"w  c #625345",
"e  c #665748",
"r  c #6A5A4A",
"t  c #705F4F",
"y  c #70604F",
"u  c #726150",
"i  c #4C5662",
"p  c #4D5864",
"a  c #4F5E6E",
"s  c #505E6E",
"d  c #536171",
"f  c #566779",
"g  c #5A6D83",
"h  c #5E738B",
"j  c #607790",
"k  c #627A94",
"l  c #647E9A",
"z  c #66819F",
"x  c #6784A3",
"c  c #6986A6",
"v  c #6C8AAB",
"b  c #6E8EB1",
"n  c #7093B7",
"m  c #7296BC",
"M  c #7498BE",
"N  c #759BC4",
"B  c #779EC8",
"V  c #789FC9",
"C  c #789FC9",
"Z  c #79A1CC",
"A  c #79A2CC",
"S  c #7AA3CE",
"D  c #7AA4CF",
"F  c #7BA5D1",
"G  c #7CA5D3",
"H  c #7CA6D3",
"J  c #7DA7D4",
"K  c #7DA7D6",
"L  c #7AA6D7",
"P  c #7DA8D5",
"I  c #7DA8D6",
"U  c #7EA9D7",
"Y  c #7EA9D8",
"T  c #7EA9D9",
"R  c #7EAAD8",
"E  c #7EAAD9",
"W  c #7FAAD9",
"Q  c #7FABDA",
"!  c #7FABDB",
"~  c #7FACDB",
"^  c #7FACDC",
"/  c #7FABDA",
"(  c #80ACDC",
")  c #80ADDC",
"_  c #80ACDD",
"`  c #80ADDD",
"'  c #80ADDE",
"]  c #80AEDE",
"[  c #81AEDF",
"{  c #82AEDC",
"}  c #85B1DE",
"|  c #81AFE0",
" . c #81AFE1",
".. c #82B0E2",
"X. c #82B1E2",
"o. c #82B0E3",
"O. c #82B1E3",
"+. c #83B2E4",
"@. c #83B3E4",
"#. c #83B3E5",
"$. c #83B2E6",
"%. c #83B3E6",
"&. c #84B3E6",
"*. c #84B3E7",
"=. c #84B4E6",
"-. c #84B4E7",
";. c #84B5E7",
":. c #82B1E3",
">. c #89B5E1",
",. c #85B5E8",
"<. c #85B5E9",
"1. c #85B6E9",
"2. c #85B6EA",
"3. c #86B6EA",
"4. c #86B6EB",
"5. c #86B7EB",
"6. c #86B7EC",
"7. c #85B5E9",
"8. c #86B8EC",
"9. c #87B9EF",
"0. c #87BAEF",
"q. c #8CBBEC",
"w. c #90BBE5",
"e. c #95BFE8",
"r. c #88BAF1",
"t. c #88BBF1",
"y. c #88BCF1",
"u. c #8ABCF3",
"i. c #8ABDF5",
"p. c #8BBEF6",
"a. c #89BDF3",
"s. c #90C0EF",
"d. c #9DC7ED",
"f. c #9FC9EE",
"g. c #94C3F2",
"h. c #99CCFD",
"j. c #A0CAEF",
"k. c #A2CDF1",
"l. c #A1CFF9",
"z. c #A4D0F8",
/* pixels */
"  # # # # # # # # # # # # # # # # # # # # # # # # # # # # # # # # # # # # # # # # # # # # # #   ",
"  # # # # # # # # # # # # # # # # # # # # # # # # # # # # # # # # # # # # # # # # # # # # # #   ",
"  # # # # @ # # # # # # # # # # # # # # # # # # # # # # # # # # # # # # # # # # # # # # # # #   ",
"  # # # 3 8 4 4 4 4 4 4 4 4 4 4 4 4 4 4 4 4 8 4 > : : : : : : : : : : : : : : : : : : ; # # #   ",
"  # # # e u t u u u u u u u u u u u u u u y t r 3 1 3 3 3 3 3 3 3 3 3 3 3 3 3 3 3 3 3 , # # #   ",
"  # # # w r e 8 9 9 9 9 9 9 9 9 9 9 9 9 8 e r r 3 , , > > > > > > > > > > > > > > , 3 > # # #   ",
"  # # # w u 3 + o X X X X # # X X X . o + , t r 3 3 - # o X X X X # # X X X X o # : 3 > # # #   ",
"  # # # w u 3 o s j h h h = % h h h h f + , t r 3 3 & @ f h h h h % = h h h j s o : 3 > # # #   ",
"  # # # w u 3 o b p.<.<.t.7 * =.6.<.y.B + , t r 3 3 & @ V y.<.6.&.* 7 y.<.<.p.b o : 3 > # # #   ",
"  # # # w u 3 o c &.Q ~ ..6 * Q ` Q ..m + , t r 1 1 & @ m ..Q ` Q * 7 ..~ Q &.c o : 3 > # # #   ",
"  # # # w u 3 o c &.Q ~ ..6 * Q ` Q ..m + , y r 1 1 & @ m ..Q ` Q * 7 ..~ Q &.c o : 3 > # # #   ",
"  # # # w u 3 o c &.Q ~ ..6 * Q ` Q ..m + , t r 1 1 & @ m ..Q ` Q * 7 ..~ Q &.c o : 3 > # # #   ",
"  # # # w u 3 o v <.` ` $.7 * ~ | ` $.M + , r r 3 3 & # N $.` | Q * 7 $.` ` <.v o : 3 > # # #   ",
"  # # # w u 3 o x | J P ` 6 * H P J ` n + , r r 3 3 & # n ` J P H * 6 ` P J ` x o : 3 > # # #   ",
"  # # # w u 3 @ % % % % % # # % % % % % + , r r 3 3 - # % % % % % # # % % % % % # : 3 > # # #   ",
"  # # # w u 3 + 5 0 0 0 0 % $ 0 0 0 0 6 + , r r 3 3 - # 6 0 0 0 0 $ % 0 0 0 0 5 # : 3 > # # #   ",
"  # # # w u 3 o v t.$.$.6.7 * ..=.$.8.N + , t r 3 3 & @ N <...$...* 7 8.$.$.t.v o : 3 > # # #   ",
"  # # # w u 3 o c &.Q ^ ..6 * Q ` Q ..m + , t r 3 3 & @ m ..Q ^ Q * 7 ..^ Q &.c o : 3 > # # #   ",
"  # # # w u 3 o c &.Q ~ ..6 * Q ` Q ..m + , t r 3 3 & @ m ..Q ` Q * 7 ..~ Q &.c o : 3 > # # #   ",
"  # # # w u 3 o c &.Q ~ ..6 * Q ` Q ..m + , t r 3 3 & # m ..Q ` Q * 7 ..~ Q &.c o : 3 > # # #   ",
"  # # # w u 3 o c &.Q ~ ..6 * Q ` Q ..m + , t r 3 3 & # m ..Q ` Q * 7 ..~ Q &.c o : 3 > # # #   ",
"  # # # w u 3 o b y.=.=.8.7 * $.<.=.8.N + , t r 3 3 & # N 8.=.<.$.* 7 8.=.=.y.v o : 3 > # # #   ",
"  # # # w u 3 o 7 i q q i * $ q q q i 0 @ , t r 3 3 - # 0 i q q q $ * i q q i 7 # : 3 > # # #   ",
"  # # # w u 3 @ # # # # # # # # # # # # @ , t r 3 3 - # # # # # # # # # # # # # # : 3 > # # #   ",
"  # # # w u 3 o z Q S D J 6 * S F S P b + , t r 3 3 & @ b P S F S * 6 P D S Q z o : 3 > # # #   ",
"  # # # w u 3 o v <.` | &.7 * ` ..` =.N + , t r 1 1 & @ N =.` ..` * 7 =.| ` <.v o : 3 > # # #   ",
"  # # # w u 3 o c &.Q ~ ..6 * Q ` Q ..m + , y r 1 1 & @ m ..Q ` Q * 7 ..~ Q &.c o : 3 > # # #   ",
"  # # # w u 3 o c &.Q ~ ..6 * Q ` Q ..m + , t r 1 1 & @ m ..Q ` Q * 7 ..~ Q &.c o : 3 > # # #   ",
"  # # # w u 3 o c &.Q ~ ..6 * Q ` Q ..m + , r r 3 3 & # m ..Q ` Q * 7 ..~ Q &.c o : 3 > # # #   ",
"  # # # w u 3 o b p.<.<.t.7 * =.<.<.t.B + , r r 3 3 & # V t.<.<.&.* 7 t.<.<.p.b o : 3 > # # #   ",
"  # # # w u 3 o f l k k l = % k k k l g + , r r 3 3 & # g l k k k % = l k k l d o : 3 > # # #   ",
"  # # # w u 3 + o . X X X + # X X X X o o , r r 3 3 & @ o X X X X # # X X X X o # : 3 > # # #   ",
"  # # # w r e 8 8 8 8 8 8 8 8 8 8 8 8 8 8 e r r 3 , , > > > > > > > > > > > > > > , 3 > # # #   ",
"  # # # w r r r r r r r r r r r r r r r r r r r 3 , , , , , , , , , , , , , , , , , 3 > # # #   ",
"  # # # w u 3 # O X o o o o o o o o X o # < t r 3 3 - # o X X X X X X X X X X o # : 3 > # # #   ",
"  # # # w u 3 o q d s d s a d d d d d i + , t r 1 3 & # p d s d s s d d d d f q o : 3 > # # #   ",
"  # # # w u 3 o b h.g.$.q.g.<.<.<.<.t.B + , t r 1 3 & @ B h.q.$.s.g.<.<.<.<.p.b o : 3 > # # #   ",
"  # # # w u 3 o c l.e.L w.j.( Q Q Q ..m + , t r 3 3 & @ m l.w.L e.d.Q Q Q Q &.c o : 3 > # # #   ",
"  # # # w u 3 o c $.>.d.>.Q Q Q Q Q ..m + , t r 3 3 & @ m | >.d.} Q Q Q Q Q &.c o : 3 > # # #   ",
"  # # # w u 3 o c q.k.k.} Q Q Q Q Q ..m + , t r 3 3 & @ m q.k.f.( Q Q Q Q Q &.c o : 3 > # # #   ",
"  # # # w u 3 o c l.k.} Q Q Q Q Q Q ..m + , t r 3 3 & # m z.f.( Q Q Q Q Q Q $.c o : 3 > # # #   ",
"  # # # w u 3 o c q.} Q Q Q Q Q Q Q ..m + , t r 3 3 & # m q.( Q Q Q Q Q Q Q $.c o : 3 > # # #   ",
"  # # # w u 3 o v 6.| ..............<.N + , t r 3 3 & # N <.................9.v o : 3 > # # #   ",
"  # # # w u 3 o k N m m m m m m m m N x + , t r 1 1 & # x N m m m m m m m m N j o : 3 > # # #   ",
"  # # # w u 3 o @ + + + + + + + + + + + o , t r 1 1 & + # # # # # # # # # # @ # @ ; 3 > # # #   ",
"  # # # w t w , , , , , , , , , , , , , , 8 r r 1 , : & - - - - - - - - - - - - - > 3 > # # #   ",
"  # # # w r r t t t t t t t t t t t t t t r r r 3 , , 3 3 3 3 3 3 3 3 3 3 3 3 1 3 3 3 > # # #   ",
"  # # # w r r r r r r r r r r r r r r r r r r r 3 , , , , , , , , , , , , , , , , , 3 > # # #   "
};
