/* XPM */
static char *_53a6d3c86014842f055155e2d75b9ebIN1UUi0zm8dBTeg2[] = {
/* columns rows colors chars-per-pixel */
"48 48 126 2 ",
"   c #00000D",
".  c #0C0E0E",
"X  c #090910",
"o  c #0C0A10",
"O  c #0F0E12",
"+  c #090A14",
"@  c #0F0E14",
"#  c #0F0F18",
"$  c #100F12",
"%  c #100F14",
"&  c #0F1017",
"*  c #0F1018",
"=  c #121112",
"-  c #101014",
";  c #161515",
":  c #101018",
">  c #1B161B",
",  c #1C171B",
"<  c #1B171E",
"1  c #1C171F",
"2  c #1D1918",
"3  c #1D191F",
"4  c #241E1F",
"5  c #352D18",
"6  c #1E1920",
"7  c #241E21",
"8  c #2E2622",
"9  c #342F20",
"0  c #363020",
"q  c #43371D",
"w  c #423926",
"e  c #41322D",
"r  c #513E37",
"t  c #5D4B24",
"y  c #524037",
"u  c #544038",
"i  c #665224",
"p  c #685324",
"a  c #705A26",
"s  c #735E27",
"d  c #775F27",
"f  c #675835",
"g  c #716027",
"h  c #776027",
"j  c #7A6227",
"k  c #7D6328",
"l  c #7E6429",
"z  c #7E642E",
"x  c #726139",
"c  c #71663B",
"v  c #75643A",
"b  c #73673C",
"n  c #79673C",
"m  c #73683C",
"M  c #7C693D",
"N  c #70534A",
"B  c #71544A",
"V  c #73564C",
"C  c #74574C",
"Z  c #75584D",
"A  c #896B2B",
"S  c #896C2B",
"D  c #8C6D2B",
"F  c #896E2C",
"G  c #8C6E2C",
"H  c #8B702C",
"J  c #8E702D",
"K  c #8B742D",
"L  c #90712E",
"P  c #806B3E",
"I  c #836F42",
"U  c #847042",
"Y  c #8A7342",
"T  c #8B7443",
"R  c #897344",
"E  c #8B7545",
"W  c #8C7545",
"Q  c #8F7945",
"!  c #917A47",
"~  c #937C48",
"^  c #E6B33E",
"/  c #E7B43E",
"(  c #E8B53E",
")  c #B99C58",
"_  c #CAA95F",
"`  c #F6C142",
"'  c #F8C242",
"]  c #F9C441",
"[  c #FFC743",
"{  c #FFC943",
"}  c #FFCA44",
"|  c #FFCD45",
" . c #FFD546",
".. c #FFDB49",
"X. c #FFDC49",
"o. c #FFE34A",
"O. c #FFE54A",
"+. c #FEE357",
"@. c #E7C268",
"#. c #E8C369",
"$. c #E7CF6E",
"%. c #E7D06F",
"&. c #E9D06F",
"*. c #E9D170",
"=. c #FFD371",
"-. c #FFD572",
";. c #FFDC75",
":. c #FEE17A",
">. c #FFE479",
",. c #FFEB7D",
"<. c #FFEC7E",
"1. c #D99D89",
"2. c #D1BB86",
"3. c #D3BD86",
"4. c #E1A48E",
"5. c #F2AF98",
"6. c #E7CE93",
"7. c #E8CF93",
"8. c #E7D497",
"9. c #EDD396",
"0. c #EED496",
"q. c #E9D598",
"w. c #FFF481",
"e. c #FFE3A1",
"r. c #FFEAA6",
"t. c #FFF1AB",
/* pixels */
"2 ; . . . . . . . . . . . . . . . . . . . . . . . . . . . . . . . . . . . . . . . . . . . . ; 2 ",
"; e Z B V V V V V V V V V V V V V V V V V V V V V V V V V V V V V V V V V V V V V V V V B Z e ; ",
". Z 5.4.1.1.1.1.1.1.1.1.1.1.1.1.1.1.1.1.1.1.1.1.1.1.1.1.1.1.1.1.1.1.1.1.1.1.1.1.1.1.1.1.4.5.C . ",
". B 4.r 2 > > > > > > > > > > > 4 8 3 < < < < < < < < < < < < < < < < < < < < < < < < 3 r 4.N . ",
". V 1.2 0 b x x x x x x x x x m w = p s s s s s s s s s s s s s s s s s s s s s s s g 5 3 1.B . ",
". V 1.> n w.>.>.>.>.>.>.>.>.>.w.! O ' .. . . . . . . . . . . . . . . . . . . . . . .o.d < 1.B . ",
". V 1.> x >.-.-.-.-.-.-.-.-.-.>.R $ ( | [ [ [ [ [ [ [ [ [ [ [ [ [ [ [ [ [ [ [ [ [ [  .a 3 1.B . ",
". V 1.> x >.-.-.-.-.-.-.-.-.-.>.R $ ( | [ [ [ [ [ [ [ [ [ [ [ [ [ [ [ [ [ [ [ [ [ [  .a 3 1.B . ",
". V 1.> x >.-.-.-.-.-.-.-.-.-.>.R $ ( | [ [ [ [ [ [ [ [ [ [ [ [ [ [ [ [ [ [ [ [ [ [  .a 3 1.B . ",
". V 1.> x >.-.-.-.-.-.-.-.-.-.>.R $ ( | [ [ [ [ [ [ [ [ [ [ [ [ [ [ [ [ [ [ [ [ [ [  .a 3 1.B . ",
". V 1.> x >.-.-.-.-.-.-.-.-.-.>.R $ ( | [ [ [ [ [ [ [ [ [ [ [ [ [ [ [ [ [ [ [ [ [ [  .a 3 1.B . ",
". V 1.> x >.-.-.-.-.-.-.-.-.-.>.R $ ( | [ [ [ [ [ [ [ [ [ [ [ [ [ [ [ [ [ [ [ [ [ [  .a 3 1.B . ",
". V 1.> x >.-.-.-.-.-.-.-.-.-.>.R $ ( | [ [ [ [ [ [ [ [ [ [ [ [ [ [ [ [ [ [ [ [ [ [  .a 3 1.B . ",
". V 1.> x >.-.-.-.-.-.-.-.-.-.>.R $ ( | [ [ [ [ [ [ [ [ [ [ [ [ [ [ [ [ [ [ [ [ [ [  .a 3 1.B . ",
". V 1.> x >.-.-.-.-.-.-.-.-.-.>.R $ ( | [ [ [ [ [ [ [ [ [ [ [ [ [ [ [ [ [ [ [ [ [ [  .a 3 1.B . ",
". V 1.> x >.-.-.-.-.-.-.-.-.-.>.R $ ' X. . . . . . . . . . . . . . . . . . . . . . .O.h < 1.B . ",
". V 1.> x >.-.-.-.-.-.-.-.-.-.>.W O k F S S S S S S S S A S J G S S S S S S S S S S H q 7 1.B . ",
". V 1.> x >.-.-.-.-.-.-.-.-.-.>.W X : : : : : : : : : : : * + @ - - - - - - : - - - - - 8 1.B . ",
". V 1.> x >.-.-.-.-.-.-.-.-.-.>.Y @ 3.q.7.7.7.7.7.7.7.7.q.3.- P *.#.#.#.#.#.#.#.#.#.&.f 3 1.B . ",
". V 1.> x >.-.-.-.-.-.-.-.-.-.>.Y % 0.t.r.r.r.r.r.r.r.r.t.9.@ W <.;.;.;.;.;.;.;.;.;.,.x > 1.B . ",
". V 1.> x >.-.-.-.-.-.-.-.-.-.>.Y % 7.r.e.e.e.e.e.e.e.e.r.6.@ T >.-.-.-.-.-.-.-.-.-.>.x , 1.B . ",
". V 1.> x >.-.-.-.-.-.-.-.-.-.>.Y % 7.r.e.e.e.e.e.e.e.e.r.6.@ T >.-.-.-.-.-.-.-.-.-.>.x , 1.B . ",
". V 1.> x >.-.-.-.-.-.-.-.-.-.>.Y % 7.r.e.e.e.e.e.e.e.e.r.6.@ T >.-.-.-.-.-.-.-.-.-.>.x , 1.B . ",
". V 1.> x >.-.-.-.-.-.-.-.-.-.>.Y % 7.r.e.e.e.e.e.e.e.e.r.6.@ T >.-.-.-.-.-.-.-.-.-.>.x , 1.B . ",
". V 1.> x >.-.-.-.-.-.-.-.-.-.>.Y % 7.r.e.e.e.e.e.e.e.e.r.6.@ T >.-.-.-.-.-.-.-.-.-.>.x , 1.B . ",
". V 1.> x >.-.-.-.-.-.-.-.-.-.>.Y % 7.r.e.e.e.e.e.e.e.e.r.6.@ T >.-.-.-.-.-.-.-.-.-.>.x , 1.B . ",
". V 1.> x >.-.-.-.-.-.-.-.-.-.>.Y % 7.r.e.e.e.e.e.e.e.e.r.6.@ T >.-.-.-.-.-.-.-.-.-.>.x , 1.B . ",
". V 1.> x >.-.-.-.-.-.-.-.-.-.>.Y % 7.r.e.e.e.e.e.e.e.e.r.6.@ T >.-.-.-.-.-.-.-.-.-.>.x , 1.B . ",
". V 1.> v ,.;.;.;.;.;.;.;.;.;.<.W % 0.t.r.r.r.r.r.r.r.r.t.9.@ T >.-.-.-.-.-.-.-.-.-.>.x , 1.B . ",
". V 1.3 f $.@.@.@.@.@.@.@.@.@.%.M - 3.8.6.6.6.6.6.6.6.6.8.2.@ T >.-.-.-.-.-.-.-.-.-.>.x , 1.B . ",
". V 1.8 - @ @ @ @ @ @ @ @ @ @ & @ + @ * * * * * * * * * # : X Q >.-.-.-.-.-.-.-.-.-.>.x , 1.B . ",
". V 1.7 q K F F F F F F F F F F G L D S S S S S S S S S H l o W >.-.-.-.-.-.-.-.-.-.>.x , 1.B . ",
". V 1.< j O. . . . . . . . . . . . . . . . . . . . . . .X.' O E >.-.-.-.-.-.-.-.-.-.>.x , 1.B . ",
". V 1.< s  .[ [ [ [ [ [ [ [ [ [ [ [ [ [ [ [ [ [ [ [ [ [ | / O E >.-.-.-.-.-.-.-.-.-.>.x , 1.B . ",
". V 1.< s  .[ [ [ [ [ [ [ [ [ [ [ [ [ [ [ [ [ [ [ [ [ [ | / O E >.-.-.-.-.-.-.-.-.-.>.x , 1.B . ",
". V 1.< s  .[ [ [ [ [ [ [ [ [ [ [ [ [ [ [ [ [ [ [ [ [ [ | / O E >.-.-.-.-.-.-.-.-.-.>.x , 1.B . ",
". V 1.< s  .[ [ [ [ [ [ [ [ [ [ [ [ [ [ [ [ [ [ [ [ [ [ | / O E >.-.-.-.-.-.-.-.-.-.>.x , 1.B . ",
". V 1.< s  .[ [ [ [ [ [ [ [ [ [ [ [ [ [ [ [ [ [ [ [ [ [ | ^   I >.-.-.-.-.-.-.-.-.-.>.x , 1.B . ",
". V 1.< s  .[ [ [ [ [ [ [ [ [ [ [ [ [ [ [ [ [ [ [ [ [ [ } ` t ) ;.-.-.-.-.-.-.-.-.-.>.x , 1.B . ",
". V 1.< s  .[ [ [ [ [ [ [ [ [ [ [ [ [ [ [ [ [ [ [ [ [ [ [ { +.:.=.-.-.-.-.-.-.-.-.-.>.x , 1.B . ",
". V 1.< s  .[ [ [ [ [ [ [ [ [ [ [ [ [ [ [ [ [ [ [ [ [ [ { ] z _ ;.-.-.-.-.-.-.-.-.-.>.x , 1.B . ",
". V 1.< s  .[ [ [ [ [ [ [ [ [ [ [ [ [ [ [ [ [ [ [ [ [ [ | /   U >.-.-.-.-.-.-.-.-.-.>.x , 1.B . ",
". V 1.< j O. . . . . . . . . . . . . . . . . . . . . . ...` O ~ w.>.>.>.>.>.>.>.>.>.w.v > 1.B . ",
". V 1.3 5 g a a a a a a a a a a a a a a a a a a a a a a s i = w c x x x x x x x x x c 9 2 1.B . ",
". B 4.y 3 1 3 3 3 3 3 3 3 3 3 3 3 3 3 3 3 3 3 3 3 3 3 3 1 6 8 4 , , , , , , , , , , , 2 u 4.N . ",
". Z 5.4.1.1.1.1.1.1.1.1.1.1.1.1.1.1.1.1.1.1.1.1.1.1.1.1.1.1.1.1.1.1.1.1.1.1.1.1.1.1.1.1.4.5.C . ",
"; e C N B B B B B B B B B B B B B B B B B B B B B B B B B B B B B B B B B B B B B B B B N C e ; ",
"2 ; . . . . . . . . . . . . . . . . . . . . . . . . . . . . . . . . . . . . . . . . . . . . ; 2 "
};
