/* XPM */
static char *_eb141554943484597435d62fbccecd7CroKoEhJpRy9YA4f[] = {
/* columns rows colors chars-per-pixel */
"48 48 149 2 ",
"   c None",
".  c #794D2F",
"X  c #654135",
"o  c #7A4C33",
"O  c #7E5135",
"+  c #835536",
"@  c #835438",
"#  c #88573A",
"$  c #865939",
"%  c #8C5E3D",
"&  c #905E3F",
"*  c #8E603D",
"=  c #91623F",
"-  c #946441",
";  c #996742",
":  c #9B6945",
">  c #A16F48",
",  c #A0714B",
"<  c #AA774E",
"1  c #A07657",
"2  c #AD7951",
"3  c #A17758",
"4  c #B07F56",
"5  c #B48459",
"6  c #BC8459",
"7  c #B18662",
"8  c #B38864",
"9  c #BE8D60",
"0  c #C78E5F",
"q  c #C88E5F",
"w  c #C68D60",
"e  c #C59365",
"r  c #CB9162",
"t  c #CE9C6C",
"y  c #D19F6F",
"u  c #DE9A6D",
"i  c #E19E6F",
"p  c #E19E70",
"a  c #D2A06F",
"s  c #DDA06D",
"d  c #D8A371",
"f  c #DBA876",
"g  c #E4A26F",
"h  c #F3A266",
"j  c #E4A373",
"k  c #EDAC76",
"l  c #E9AB79",
"z  c #F1AF79",
"x  c #E7B37E",
"c  c #EEB37E",
"v  c #FFB672",
"b  c #FEB973",
"n  c #F6B37A",
"m  c #F9B67C",
"M  c #FCB97E",
"N  c #698CAC",
"B  c #6E96BB",
"V  c #4A8AC4",
"C  c #538CC1",
"Z  c #5D9DDF",
"A  c #6A9ED6",
"S  c #669FDD",
"D  c #67A0DE",
"F  c #6AA2DE",
"G  c #77A4D7",
"H  c #74A5DB",
"J  c #5D9FE3",
"K  c #629FE1",
"L  c #63A1E4",
"P  c #6BA4E2",
"I  c #6FA9E7",
"U  c #6EAAEA",
"Y  c #74ADE6",
"T  c #7BADE0",
"R  c #71ACEC",
"E  c #72AFF0",
"W  c #75B1F1",
"Q  c #78B2F1",
"!  c #78B7FB",
"~  c #9B989D",
"^  c #9FA0A3",
"/  c #AEAAAD",
"(  c #BDADA4",
")  c #A6A8B2",
"_  c #CAAF9B",
"`  c #D4AE92",
"'  c #EDB882",
"]  c #F5BB85",
"[  c #FCBD82",
"{  c #FFC083",
"}  c #FAC086",
"|  c #FBC086",
" . c #FFC385",
".. c #FCC187",
"X. c #F5C188",
"o. c #F8C189",
"O. c #FAC38B",
"+. c #FAC48B",
"@. c #FFC788",
"#. c #FBC68C",
"$. c #FDC78D",
"%. c #FCC78D",
"&. c #FDC78E",
"*. c #FBC68C",
"=. c #FFC88A",
"-. c #FBC88E",
";. c #FFC98C",
":. c #FDC88E",
">. c #FDC98F",
",. c #FDC98E",
"<. c #FEC88E",
"1. c #FEC98E",
"2. c #FEC98F",
"3. c #FFC98E",
"4. c #FECA8F",
"5. c #FFCA8F",
"6. c #FDCA8F",
"7. c #FDC88E",
"8. c #FED18A",
"9. c #FDCB90",
"0. c #FECA90",
"q. c #FFCB90",
"w. c #FFCB90",
"e. c #FDCC91",
"r. c #FFCD91",
"t. c #FECC91",
"y. c #FFCD92",
"u. c #FECC92",
"i. c #FFCF93",
"p. c #FECE92",
"a. c #FFD093",
"s. c #FDD092",
"d. c #FFD194",
"f. c #FFD597",
"g. c #FFD598",
"h. c #FFD799",
"j. c #FFD99A",
"k. c #FFDA9A",
"l. c #FFDB9D",
"z. c #FFDD9D",
"x. c #FFDE9E",
"c. c #85B4E1",
"v. c #89B5E1",
"b. c #8DB9E2",
"n. c #90BBE3",
"m. c #84BEFA",
"M. c #96C5EF",
"N. c #97C6F2",
"B. c #9DCDF9",
/* pixels */
"                                  @ @ @ @ @ @ @ @ @ @ % * = -                                   ",
"                            # # % # @ @ @ @ @ @ @ @ % * % % = ; - ;                             ",
"                          # % @ @ @ @ @ @ @ @ @ @ % * % % % % % * ; =                           ",
"                        @ % @ @ @ @ @ @ @ @ @ @ % * % % % % % % % % ; =                         ",
"                      @ % @ @ @ @ @ @ @ @ @ @ % * % % % % % % % % % % ; *                       ",
"                      # @ @ @ @ @ @ @ @ @ @ # * % % % % % % % % % % % * ;                       ",
"                    @ % @ @ @ @ @ @ @ @ @ $ * % % % % % % % % % % % % % ; =                     ",
"                    @ # @ @ @ @ @ @ @ @ @ % % % % % % % % % % % % % % % - *                     ",
"                    @ @ @ @ @ @ @ @ @ @ # * % % % % % % % % % % % % % % = %                     ",
"                    @ @ @ @ @ @ @ @ @ @ * % % % % * * % % - - % % ; # % = *                     ",
"                    @ @ O o O @ @ @ @ % * % % $ > r % % $ 5 9 $ $ t t $ = %                     ",
"                    @ O 2 w % o o o # * % % + : n s $ % + t ' $ + t l.5 # *                     ",
"                    @ @ j  .n 6 : w 6 # % + 2 n  .d O + # x d., . y h.x % %                     ",
"                    @ & k m m [ M [ < O % 0 m [ :.x 4 e x 0.i.f a -.i.X.: %                     ",
"                    o # k m n [ } m k q g M [ &.:.:.d.d.i.:.&.i.d.:.0.X.= $                     ",
"                    ; r n m n } i.i.:.[ m [ :.:.:.:.:.:.:.a.a.:.:.:.:.#.t >                     ",
"                    M { n n n } i.7 8 i.&.:.:.:.:.:.:.:.i.7 7 i.:.:.:.:.h.i.                    ",
"                  n @.n n n n  .0.X X 0.0.:.:.:.:.:.:.:.:.X X :.:.:.:.:.&.z.&.                  ",
"                  n ;.n n n n } i.1 3 i.:.:.:.:.:.:.:.:.i.1 3 i.:.:.:.:.&.z.&.                  ",
"                    M @.m n n } 0.i.i.:.:.:.:.:.:.:.:.:.:.i.i.:.:.:.:.:.z.i.                    ",
"                      [ n m n } 0.:.:.:.:.:.:.:.:.:.:.:.:.:.:.:.:.:.0.:.a.                      ",
"                        n M n } 0.:.:.:.0.0.:.:.:.:.0.0.:.:.:.:.:.:.i.&.                        ",
"                        n [ n [ 0.:.:.o.l ] #.:.:.#.] l o.:.:.:.:.:.d.&.                        ",
"                        n @.n m :.:.:.o.i u j j j j u p o.:.:.:.:.&.z.&.                        ",
"                          m  .n [ 0.:.:.+.c l j j l c +.:.:.:.:.:.j.0.                          ",
"                            [  .[ [ :.:.:.0.:.:.:.:.0.:.:.:.:.f.j.i.                            ",
"                                M m ;.:.:.:.:.:.:.:.:.:.:.h.i.i.                                ",
"                                    b [ :.0.:.:.:.:.0.i.-.8.                                    ",
"                                      j k ] #.:.:.#.] c z                                       ",
"                              A C V B p i p j j j j i k m B V C A                               ",
"                              W F V N g j p p u i j n m m N V F Q                               ",
"                            F I P J ~ h j j j l z m m n v ^ Z P I F                             ",
"                          v.Q S F P G ` v n n m m n n v ` G P F D Q v.                          ",
"                      n.n.M.b.T F D L P _ v n n n n v _ P L D F T b.M.n.n.                      ",
"                  b.B.N.n.b.b.n.b.T F K L ( v m m v ( L K F T b.n.b.b.n.N.B.b.                  ",
"                  m.b.b.b.b.b.b.b.n.b.T P J / v v / J P T b.n.b.b.b.b.b.b.b.m.                  ",
"                F U T n.b.b.b.b.b.b.b.n.b.T L ) ) L T b.n.b.b.b.b.b.b.b.n.T U F                 ",
"                F I D T n.b.b.b.b.b.b.b.b.n.b.Y Y b.n.b.b.b.b.b.b.b.b.n.T D I F                 ",
"                F I F F c.n.b.b.b.b.b.b.b.b.b.b.b.b.b.b.b.b.b.b.b.b.n.c.F F I F                 ",
"                F P F F F v.b.b.b.b.b.b.b.b.b.b.b.b.b.b.b.b.b.b.b.b.v.F F F P F                 ",
"                I F F F F F b.b.b.b.b.b.b.b.b.b.b.b.b.b.b.b.b.b.b.b.F F F F F I                 ",
"                R F F F F D T n.b.b.b.b.b.b.b.b.b.b.b.b.b.b.b.b.n.T D F F F F R                 ",
"                W F F F F D T n.b.b.b.b.b.b.b.b.b.b.b.b.b.b.b.b.n.T D F F F F W                 ",
"              F E F F F F D T n.b.b.b.b.b.b.b.b.b.b.b.b.b.b.b.b.n.T D F F F F E F               ",
"              F R F F F F D T n.b.b.b.b.b.b.b.b.b.b.b.b.b.b.b.b.n.T D F F F F R F               ",
"              F R F F F F D T n.b.b.b.b.b.b.b.b.b.b.b.b.b.b.b.b.n.T D F F F F R F               ",
"              F ! F F F F D T n.b.b.b.b.b.b.b.b.b.b.b.b.b.b.b.b.n.T D F F F F ! F               ",
"                H I P F F D T n.b.b.b.b.b.b.b.b.b.b.b.b.b.b.b.b.n.T D F F P I F                 "
};
