/* XPM */
static char *_282bcfeae8841ef8460f044fa6e9987fwSj0mKpLoag79Ut[] = {
/* columns rows colors chars-per-pixel */
"48 48 228 2 ",
"   c None",
".  c #671D26",
"X  c #661F27",
"o  c #671F27",
"O  c #681D25",
"+  c #6A1D25",
"@  c #6B1D25",
"#  c #681F27",
"$  c #691F27",
"%  c #6C1D25",
"&  c #6F1D25",
"*  c #621F28",
"=  c #631F28",
"-  c #641F28",
";  c #651F28",
":  c #661F28",
">  c #671F28",
",  c #681F28",
"<  c #701E25",
"1  c #711E25",
"2  c #721E25",
"3  c #761E24",
"4  c #7E1F23",
"5  c #781E24",
"6  c #7D1F24",
"7  c #672027",
"8  c #682027",
"9  c #692027",
"0  c #6A2027",
"q  c #6B2027",
"w  c #6C2027",
"e  c #6D2027",
"r  c #6F2126",
"t  c #6E2027",
"y  c #6F2027",
"u  c #682028",
"i  c #692029",
"p  c #6A2029",
"a  c #6B2129",
"s  c #6D2129",
"d  c #6E2128",
"f  c #6F2129",
"g  c #6A252A",
"h  c #6B252A",
"j  c #6F2529",
"k  c #6C252A",
"l  c #6D252A",
"z  c #6E252A",
"x  c #6F252A",
"c  c #712126",
"v  c #722126",
"b  c #732126",
"n  c #732127",
"m  c #752126",
"M  c #742127",
"N  c #752127",
"B  c #762126",
"V  c #772126",
"C  c #7B2225",
"Z  c #782126",
"A  c #792126",
"S  c #7A2126",
"D  c #7B2126",
"F  c #792226",
"G  c #7B2226",
"H  c #7D2225",
"J  c #7E2225",
"K  c #7F2225",
"L  c #7C2126",
"P  c #7C2226",
"I  c #7D2226",
"U  c #7E2226",
"Y  c #7F2226",
"T  c #702128",
"R  c #702129",
"E  c #712129",
"W  c #702529",
"Q  c #70252A",
"!  c #70262A",
"~  c #822023",
"^  c #832023",
"/  c #842023",
"(  c #852023",
")  c #862023",
"_  c #802225",
"`  c #812225",
"'  c #822225",
"]  c #832225",
"[  c #842225",
"{  c #852225",
"}  c #852325",
"|  c #862225",
" . c #862325",
".. c #872325",
"X. c #882325",
"o. c #8A2324",
"O. c #8B2324",
"+. c #8A2325",
"@. c #8C2324",
"#. c #8D2324",
"$. c #8E2324",
"%. c #8F2324",
"&. c #8D2424",
"*. c #8F2424",
"=. c #912423",
"-. c #922423",
";. c #932423",
":. c #942423",
">. c #952423",
",. c #962423",
"<. c #972423",
"1. c #902324",
"2. c #912324",
"3. c #902424",
"4. c #912424",
"5. c #922424",
"6. c #932424",
"7. c #942424",
"8. c #952424",
"9. c #962524",
"0. c #982423",
"q. c #982523",
"w. c #992523",
"e. c #9A2523",
"r. c #9B2523",
"t. c #9C2523",
"y. c #9D2523",
"u. c #9F2522",
"i. c #9E2523",
"p. c #9F2523",
"a. c #9F2622",
"s. c #A12522",
"d. c #A02523",
"f. c #A22522",
"g. c #A32522",
"h. c #A22523",
"j. c #A12622",
"k. c #A12623",
"l. c #A22622",
"z. c #A32622",
"x. c #A42522",
"c. c #A52522",
"v. c #A42622",
"b. c #A52622",
"n. c #A62622",
"m. c #A72622",
"M. c #AB2721",
"N. c #A82722",
"B. c #AD2721",
"V. c #AE2721",
"C. c #AF2721",
"Z. c #B02721",
"A. c #B12721",
"S. c #B22721",
"D. c #B32721",
"F. c #B42721",
"G. c #B52721",
"H. c #B62721",
"J. c #B72721",
"K. c #B82721",
"L. c #B92721",
"P. c #B02821",
"I. c #B22821",
"U. c #B42821",
"Y. c #B52821",
"T. c #B62821",
"R. c #B72821",
"E. c #B82821",
"W. c #B92821",
"Q. c #BA2821",
"!. c #BB2821",
"~. c #BB2921",
"^. c #BC2921",
"/. c #C4AE71",
"(. c #C5AF72",
"). c #C5AF73",
"_. c #C6AF72",
"`. c #C6AF73",
"'. c #C6B073",
"]. c #CDBD78",
"[. c #CEBE79",
"{. c #CFBF7A",
"}. c #D0C07B",
"|. c #D0C07C",
" X c #D1C17C",
".X c #D1C17D",
"XX c #D2C27C",
"oX c #D2C27D",
"OX c #D3C27D",
"+X c #D3C37D",
"@X c #D2C47D",
"#X c #D3C57F",
"$X c #D5C57D",
"%X c #D4C47F",
"&X c #D5C57F",
"*X c #D6C57E",
"=X c #D4C67E",
"-X c #D4C67F",
";X c #D4C77F",
":X c #D5C77F",
">X c #D7C67F",
",X c #D5C580",
"<X c #D7C780",
"1X c #D6C681",
"2X c #D7C782",
"3X c #D8C780",
"4X c #D8C782",
"5X c #D8C880",
"6X c #D8C883",
"7X c #D8CA82",
"8X c #DBCB86",
"9X c #DBCD85",
"0X c #DDCD85",
"qX c #DECD88",
"wX c #DECE89",
"eX c #E2D18A",
"rX c #E1D18C",
"tX c #E4D48E",
"yX c #E7D792",
"uX c #E8D792",
"iX c #F3E29D",
"pX c #F6E5A0",
"aX c #F8E7A1",
"sX c #F8E7A2",
"dX c #FBEAA5",
"fX c #FCEBA6",
"gX c #FDECA7",
"hX c #FEEDA8",
/* pixels */
"                                                                                                ",
"                                                                                                ",
"                                                                                                ",
"                                                                                                ",
"1X5X5X5X5X5X5X>X>X4X5X5X5X>X0XeX4X5X5X5X5X5X5X5X5X5X5X5X5X5X5X5X5X5X5X5X5X5X5X5X5X5X5X5X5X5X5X5X",
"oXoXoXoXoXoX}.1XtX>XoXoX{.4XaXaXoXoXoXoXoXoXoXoXoXoXoXoXoXoXoXoXoXoXoXoXoXoXoXoXoXoXoXoXoXoXoXoX",
"oXoXoXoXoX{.>XiXgX5X{.{.1XpXdXqX{.oXoXoXoXoXoXoXoXoXoXoXoXoXoXoXoXoXoXoXoXoXoXoXoXoXoXoXoXoXoXoX",
"oXoXoXoX{.>XiXgXrX{.{.1XpXdXqX].oXoXoXoXoXoXoXoXoXoXoXoXoXoXoXoXoXoXoXoXoXoXoXoXoXoXoXoXoXoXoXoX",
"oXoXoX{.>XiXgXrX{.{.1XpXdXqX{.}.oXoXoXoXoXoXoXoXoXoXoXoXoXoXoXoXoXoXoXoXoXoXoXoXoXoXoXoXoXoXoXoX",
"oXoX}.1XiXgXrX{.{.1XpXdXqX{.oXoXoXoXoXoXoXoXoXoXoXoXoXoXoXoXoXoX}.}.oXoXoXoXoXoXoXoXoXoXoXoXoXoX",
"{.oX{.uXhXrX{.{.1XpXdXqX{.oXoXoXoXoX}.}.oXoXoXoXoXoXoXoXoXoXoXoXoXoXoXoXoXoXoX}.oXoXoXoXoXoXoXoX",
"{.oX{.1X8X{.{.1XpXdXqX{.oXoXoXoXoXoXoXoXoXoX}.oXoXoXoXoXoX}.}.oXoXoXoXoXoXoXoX}.oXoX}.oXoXoXoXoX",
"oXoXoX}.{.{.1XpXdXqX{.oXoXoX}.oXoXoX}.}.oXoXoXoXoXoXoXoXoXoXoXoXoXoXoXoXoXoXoX}.oX}.}.oXoXoXoXoX",
"oXoXoXoX{.1XpXdXqX{.oXoXoXoX}.}.oXoXoXoXoXoXoXoXoXoXoXoXoXoXoXoXoXoXoXoXoXoXoXoXoX}.oXoXoXoXoXoX",
"oXoXoX{.1XpXdXqX{.oXoXoXoXoXoXoXoXoXoXoXoXoXoXoXoXoXoXoX}.}.oXoX}.}.oXoXoXoXoXoXoXoXoXoXoXoXoXoX",
"oXoX}.1XpXdXqX{.oXoXoXoXoXoXoXoXoXoXoXoXoXoXoX}.}.oXoXoXoXoXoXoXoXoXoXoXoXoXoXoXoXoXoXoXoXoXoXoX",
"oXoX{.yXfXqX{.oXoXoXoXoXoXoXoXoXoXoXoXoXoXoXoXoXoXoXoXoXoXoXoXoXoXoXoXoXoXoXoXoXoXoXoXoXoXoXoXoX",
"#X>X>X7X9X#X>X>X>X>X#X#X>X>X>X>X>X>X#X#X>X>X>X>X>X>X#X#X>X>X>X>X>X>X>X>X>X>X#X#X>X>X>X>X>X>X>X>X",
"_.'.'._._._._.'.'.'.'.'.'.'._._.'.'.'.'.'.'.'.'._.'.'.'.'.'.'.'.'._._.'.'.'.'.'.'.'._._.'.'.'.'.",
"W k g g g k k g g g g g g g k k g g g g g g g k W g g g g g g g g k k g g g g g g g k k g g k W ",
"+ 1 / / ~ + 1 / / / / / / / 1 + ~ ~ / / / / / 5 . 6 / / ~ / / / 4 . 3 / / / / / ~ ~ % % / / 1 + ",
"7 [ Q.R.P.t I Q.R.R.R.R.R.Q._ t P.R.R.R.R.R.Q.7.* h.Q.R.R.R.R.Q.m.; #.Q.R.R.R.R.R.P.n G R.Q._ 7 ",
"7 _ G.S.V.t I G.S.S.V.S.S.G.I t M.S.S.S.S.S.R.6.* i.G.S.S.S.S.G.h.; #.R.S.S.S.S.S.V.n G S.G._ 7 ",
"7 _ K.G.S.t I K.S.S.S.S.S.K._ t V.G.S.S.S.S.Q.6.* h.K.S.S.S.S.K.m.; #.Q.S.S.S.S.G.S.n G G.K._ 7 ",
"q I m.m.h.t G m.h.h.h.h.h.m.G t i.m.h.h.h.h.M.+.; 7.m.h.h.h.h.m.r.; [ M.h.h.h.h.m.h.n V m.m.I q ",
"t q ; ; ; . ; ; ; q q ; ; ; ; . ; ; q q ; ; ; ; . ; ; ; q q ; ; ; . ; ; ; q q ; ; ; ; ; ; ; q t ",
"q V #.#.#.#.#.#.#.n t +.#.#.#.#.#.*.I , [ #.#.#.#.#.#.[ , I *.#.#.#.#.#.+.t n #.#.#.#.#.#.#.V q ",
". [ Q.R.R.R.R.R.Q.I t P.R.R.R.R.R.^.2.* m.Q.R.R.R.R.Q.h.* 6.^.R.R.R.R.Q.P.t I Q.R.R.R.R.R.Q._ 7 ",
". _ G.S.S.S.S.S.S.G t V.S.S.S.S.S.R.#.; h.G.S.S.S.S.G.i.; 6.R.S.S.S.S.S.V.t I G.S.S.S.S.S.G._ 7 ",
". _ K.G.G.G.G.G.K.I t S.G.G.G.G.G.Q.2.* m.K.G.G.G.G.K.h.* 6.Q.G.G.G.G.G.S.t I K.G.G.G.G.G.K._ 7 ",
"+ I i.i.i.i.i.i.i.V t r.i.i.i.i.i.h.[ ; =.h.i.i.i.i.h.=.; [ h.i.i.i.i.i.r.t V i.i.i.i.i.i.h.G q ",
"t q * * * 7 . * * ; . * * * . q * * ; . ; * * ; q ; * ; . ; * * ; q ; * * . ; * * * q 7 * * q t ",
"q G 7.7.6.t V 7.6.6.6.6.6.7.V q 6.7.6.6.6.6.7._ ; [ 7.6.6.6.6.7.+.; I 7.6.6.6.6.6.6.t n 7.7.G q ",
"7 [ Q.Q.P.t I Q.R.R.R.R.R.Q._ q P.Q.R.R.R.R.^.6.* h.Q.R.R.R.R.Q.m.* #.^.R.R.R.R.R.P.n G Q.Q._ 7 ",
"7 _ G.S.V.t I G.S.S.S.S.S.G.I q M.S.S.S.S.S.R.6.* i.G.S.S.S.S.G.h.; #.R.S.S.S.S.S.V.n G S.G._ 7 ",
"7 [ Q.R.P.t I Q.R.R.R.R.R.Q._ q P.R.R.R.R.R.^.6.* h.Q.R.R.R.R.Q.m.; #.^.R.R.R.R.R.P.n G R.Q._ 7 ",
"q G <.<.=.t V <.<.<.<.<.<.<.V t =.<.<.<.<.<.r._ ; +.r.<.<.<.<.<.*., I r.<.<.<.<.<.<.t n <.r.G q ",
"t q * * * q . * * ; . * * * ; q * * ; 7 * * * ; q ; * ; 7 ; * * ; q ; * * . ; * * * . . * * q t ",
"+ G i.r.r.r.r.r.i.V t r.r.r.r.r.r.i._ ; 2.i.r.r.r.r.i.#.; [ i.r.r.r.r.i.r.t G i.r.r.r.r.r.i.G q ",
". [ K.G.G.G.G.G.K.I t S.G.G.G.G.G.Q.2.* m.K.G.G.G.G.K.h.* 6.Q.G.G.G.G.G.S.t I K.G.G.G.G.G.K._ 7 ",
". _ G.V.S.S.S.S.S.G t V.S.S.S.S.S.R.#.; h.G.S.S.S.S.G.i.; 6.R.S.S.S.S.S.V.t I G.S.S.S.S.V.G._ 7 ",
". [ Q.R.R.R.R.R.Q.I t P.R.R.R.R.R.^.2.* m.Q.R.R.R.R.Q.h.* 6.^.R.R.R.R.Q.P.t I Q.R.R.R.R.R.Q._ 7 ",
"q G 6.*.6.6.6.6.6.V t *.6.6.6.6.6.6.I i +.6.6.6.6.6.6.[ i I 6.6.6.6.6.6.*.t V 6.6.6.6.6.6.6.G q ",
"R f i i i i i i i f R i i i i i i i f R i i i i i i i i R f i i i i i i i R f i i i i i i i f R ",
"                                                                                                ",
"                                                                                                ",
"                                                                                                ",
"                                                                                                "
};
